<?xml version="1.0" encoding="utf-8"?>
<!-- Generator: Adobe Illustrator 17.1.0, SVG Export Plug-In . SVG Version: 6.00 Build 0)  -->
<!DOCTYPE svg PUBLIC "-//W3C//DTD SVG 1.1//EN" "http://www.w3.org/Graphics/SVG/1.1/DTD/svg11.dtd">
<svg version="1.1" id="Layer_1" xmlns="http://www.w3.org/2000/svg" xmlns:xlink="http://www.w3.org/1999/xlink" x="0px" y="0px"
	 viewBox="0 0 250 250" enable-background="new 0 0 250 250" xml:space="preserve">
<g id="t3R5Wi.tif_2_">
	<g>
		<path fill="#FFFFFF" d="M40.4,196.5c0-0.9,0-1.8,0-2.6c0.2-0.5,0.6-0.9,0.6-1.5c3.6-23.1,7.1-46.2,10.7-69.3
			c5.5-35.3,11-70.5,16.5-105.8c0.5-3,1-5.8,3.8-7.6c1.3,0,2.6,0,4,0c1.4,1.7,3,3.2,4.1,5c3.6,6.4,7,13,10.4,19.4
			C96.3,45,102,55.8,108,67c0.7-1.2,1.3-2.1,1.8-3.1c3.2-6.1,6.4-12.3,9.7-18.3c2.5-4.6,7.4-4.6,10.2-0.1c0.5,0.7,0.8,1.5,1.2,2.3
			c6.1,11.6,12.1,23.1,18.2,34.7c0.5,1,1.2,2,1.8,3.1c8.8-8.8,17.5-17.4,26.1-26c1.8-1.8,3.6-3.2,6.3-2.5c3,0.8,3.7,3.2,4.1,5.8
			c1.4,8.3,2.7,16.7,4.1,25c5.7,35,11.3,70,17.1,104.9c0.4,2.5-0.1,3.9-2.5,5.2c-22.1,12.2-44.1,24.6-66.2,36.7
			c-4.8,2.6-9.9,4.4-14.9,6.6c-0.4,0-0.9,0-1.3,0c-2.6-1-5.5-1.6-7.9-2.9C90.5,224.5,65.4,210.5,40.4,196.5z M107.9,69.1
			c-22,41.7-43.6,82.6-65.2,123.8c28.7-28.6,57.3-57,85.9-85.5C121.9,95,115,82.3,107.9,69.1z"/>
	</g>
</g>
</svg>
